{
    "asset" : {
        "generator" : "Khronos glTF Blender I/O v1.7.33",
        "version" : "2.0"
    },
    "scene" : 0,
    "scenes" : [
        {
            "name" : "Scene",
            "nodes" : [
                5,
                6
            ]
        }
    ],
    "nodes" : [
        {
            "mesh" : 0,
            "name" : "drzewko 2_li\ufffd\ufffdcie_0"
        },
        {
            "mesh" : 1,
            "name" : "drzewko 2_pie\ufffd\ufffd_0"
        },
        {
            "children" : [
                0,
                1
            ],
            "name" : "drzewko 2",
            "rotation" : [
                -0.5000000596046448,
                0.4999999403953552,
                0.5,
                0.5
            ],
            "scale" : [
                100,
                100,
                100
            ],
            "translation" : [
                187.24099731445312,
                -9.099335670471191,
                11.533123016357422
            ]
        },
        {
            "children" : [
                2
            ],
            "name" : "RootNode"
        },
        {
            "children" : [
                3
            ],
            "name" : "a9035b20ca50463190e5f6a54b06b513.fbx",
            "rotation" : [
                0.7071068286895752,
                0,
                0,
                0.7071068286895752
            ],
            "scale" : [
                0.009999999776482582,
                0.009999999776482582,
                0.009999999776482582
            ]
        },
        {
            "children" : [
                4
            ],
            "name" : "Sketchfab_model",
            "rotation" : [
                -0.7071068286895752,
                0,
                0,
                0.7071068286895752
            ],
            "scale" : [
                0.5833958387374878,
                0.5833958387374878,
                0.5833958387374878
            ],
            "translation" : [
                -1.0932539701461792,
                0.06695762276649475,
                -0.0666329562664032
            ]
        },
        {
            "mesh" : 2,
            "name" : "imageedit_1_6226787222",
            "scale" : [
                2.9717209339141846,
                2.9717209339141846,
                2.9717209339141846
            ]
        }
    ],
    "materials" : [
        {
            "alphaCutoff" : 0.5306851267814636,
            "alphaMode" : "MASK",
            "doubleSided" : true,
            "name" : "licie",
            "pbrMetallicRoughness" : {
                "baseColorTexture" : {
                    "index" : 0
                },
                "metallicFactor" : 0
            }
        },
        {
            "doubleSided" : true,
            "name" : "material",
            "pbrMetallicRoughness" : {
                "baseColorTexture" : {
                    "index" : 1
                },
                "metallicFactor" : 0,
                "roughnessFactor" : 0.9280523061752319
            }
        },
        {
            "alphaMode" : "BLEND",
            "doubleSided" : true,
            "name" : "imageedit_1_6226787222",
            "pbrMetallicRoughness" : {
                "baseColorTexture" : {
                    "index" : 2
                },
                "metallicFactor" : 0,
                "roughnessFactor" : 0.5
            }
        }
    ],
    "meshes" : [
        {
            "name" : "drzewko 2_li\ufffd\ufffdcie_0",
            "primitives" : [
                {
                    "attributes" : {
                        "POSITION" : 0,
                        "NORMAL" : 1,
                        "TEXCOORD_0" : 2
                    },
                    "indices" : 3,
                    "material" : 0
                }
            ]
        },
        {
            "name" : "drzewko 2_pie\ufffd\ufffd_0",
            "primitives" : [
                {
                    "attributes" : {
                        "POSITION" : 4,
                        "NORMAL" : 5,
                        "TEXCOORD_0" : 6
                    },
                    "indices" : 7,
                    "material" : 1
                }
            ]
        },
        {
            "name" : "imageedit_1_6226787222",
            "primitives" : [
                {
                    "attributes" : {
                        "POSITION" : 8,
                        "NORMAL" : 9,
                        "TEXCOORD_0" : 10
                    },
                    "indices" : 11,
                    "material" : 2
                }
            ]
        }
    ],
    "textures" : [
        {
            "sampler" : 0,
            "source" : 0
        },
        {
            "sampler" : 0,
            "source" : 1
        },
        {
            "sampler" : 1,
            "source" : 2
        }
    ],
    "images" : [
        {
            "bufferView" : 4,
            "mimeType" : "image/png",
            "name" : "licie_baseColor"
        },
        {
            "bufferView" : 9,
            "mimeType" : "image/png",
            "name" : "material_baseColor"
        },
        {
            "bufferView" : 14,
            "mimeType" : "image/png",
            "name" : "imageedit_1_6226787222"
        }
    ],
    "accessors" : [
        {
            "bufferView" : 0,
            "componentType" : 5126,
            "count" : 598,
            "max" : [
                2.4769625663757324,
                2.361846923828125,
                8.84089469909668
            ],
            "min" : [
                -2.34029483795166,
                -1.9577181339263916,
                3.0236356258392334
            ],
            "type" : "VEC3"
        },
        {
            "bufferView" : 1,
            "componentType" : 5126,
            "count" : 598,
            "type" : "VEC3"
        },
        {
            "bufferView" : 2,
            "componentType" : 5126,
            "count" : 598,
            "type" : "VEC2"
        },
        {
            "bufferView" : 3,
            "componentType" : 5123,
            "count" : 600,
            "type" : "SCALAR"
        },
        {
            "bufferView" : 5,
            "componentType" : 5126,
            "count" : 1834,
            "max" : [
                1.6706713438034058,
                1.6253803968429565,
                7.182104110717773
            ],
            "min" : [
                -1.559612512588501,
                -1.1514246463775635,
                0.0008709430694580078
            ],
            "type" : "VEC3"
        },
        {
            "bufferView" : 6,
            "componentType" : 5126,
            "count" : 1834,
            "type" : "VEC3"
        },
        {
            "bufferView" : 7,
            "componentType" : 5126,
            "count" : 1834,
            "type" : "VEC2"
        },
        {
            "bufferView" : 8,
            "componentType" : 5123,
            "count" : 5040,
            "type" : "SCALAR"
        },
        {
            "bufferView" : 10,
            "componentType" : 5126,
            "count" : 4,
            "max" : [
                0.4344262182712555,
                0,
                0.5
            ],
            "min" : [
                -0.4344262182712555,
                0,
                -0.5
            ],
            "type" : "VEC3"
        },
        {
            "bufferView" : 11,
            "componentType" : 5126,
            "count" : 4,
            "type" : "VEC3"
        },
        {
            "bufferView" : 12,
            "componentType" : 5126,
            "count" : 4,
            "type" : "VEC2"
        },
        {
            "bufferView" : 13,
            "componentType" : 5123,
            "count" : 6,
            "type" : "SCALAR"
        }
    ],
    "bufferViews" : [
        {
            "buffer" : 0,
            "byteLength" : 7176,
            "byteOffset" : 0
        },
        {
            "buffer" : 0,
            "byteLength" : 7176,
            "byteOffset" : 7176
        },
        {
            "buffer" : 0,
            "byteLength" : 4784,
            "byteOffset" : 14352
        },
        {
            "buffer" : 0,
            "byteLength" : 1200,
            "byteOffset" : 19136
        },
        {
            "buffer" : 0,
            "byteLength" : 124071,
            "byteOffset" : 20336
        },
        {
            "buffer" : 0,
            "byteLength" : 22008,
            "byteOffset" : 144408
        },
        {
            "buffer" : 0,
            "byteLength" : 22008,
            "byteOffset" : 166416
        },
        {
            "buffer" : 0,
            "byteLength" : 14672,
            "byteOffset" : 188424
        },
        {
            "buffer" : 0,
            "byteLength" : 10080,
            "byteOffset" : 203096
        },
        {
            "buffer" : 0,
            "byteLength" : 806813,
            "byteOffset" : 213176
        },
        {
            "buffer" : 0,
            "byteLength" : 48,
            "byteOffset" : 1019992
        },
        {
            "buffer" : 0,
            "byteLength" : 48,
            "byteOffset" : 1020040
        },
        {
            "buffer" : 0,
            "byteLength" : 32,
            "byteOffset" : 1020088
        },
        {
            "buffer" : 0,
            "byteLength" : 12,
            "byteOffset" : 1020120
        },
        {
            "buffer" : 0,
            "byteLength" : 148116,
            "byteOffset" : 1020132
        }
    ],
    "samplers" : [
        {
            "magFilter" : 9729,
            "minFilter" : 9987
        },
        {
            "magFilter" : 9729,
            "minFilter" : 9987,
            "wrapS" : 33071,
            "wrapT" : 33071
        }
    ],
    "buffers" : [
        {
            "byteLength" : 1168248,
            "uri" : "data:application/octet-stream;base64,"
        }
    ]
}
